<svg width="17" height="17" viewBox="0 0 17 17" fill="none" xmlns="http://www.w3.org/2000/svg">
<path d="M17 6.62907C17 7.41349 16.3144 8.08423 15.5125 8.08423H12.1971C12.7397 8.65028 12.8063 9.73662 11.988 10.4398C12.4624 11.1978 12.0593 12.2001 11.4418 12.5088C11.7398 14.1405 10.7131 14.875 9.03125 14.875C8.94007 14.875 8.59045 14.8683 8.5 14.8685C6.44237 14.8741 5.94688 13.8371 4.39174 13.5963C4.00416 13.5363 3.71875 13.2015 3.71875 12.8093V7.11413L3.71882 7.1141C3.71918 6.50429 4.071 5.92247 4.66391 5.65831C5.62302 5.22687 7.83192 4.0301 8.23438 3.09095C8.49326 2.48685 8.94439 2.12527 9.5625 2.125C10.6988 2.12454 11.48 3.29036 11.0274 4.34655C10.9084 4.6241 10.7514 4.90005 10.5575 5.17391H15.5125C16.2911 5.17391 17 5.856 17 6.62907ZM3.1875 6.64062V13.0156C3.1875 13.4557 2.83073 13.8125 2.39062 13.8125H0.796875C0.356768 13.8125 0 13.4557 0 13.0156V6.64062C0 6.20052 0.356768 5.84375 0.796875 5.84375H2.39062C2.83073 5.84375 3.1875 6.20052 3.1875 6.64062ZM2.25781 12.2188C2.25781 11.852 1.96051 11.5547 1.59375 11.5547C1.22699 11.5547 0.929688 11.852 0.929688 12.2188C0.929688 12.5855 1.22699 12.8828 1.59375 12.8828C1.96051 12.8828 2.25781 12.5855 2.25781 12.2188Z" fill="#0B8341"/>
</svg>
